<svg xmlns="http://www.w3.org/2000/svg" xmlns:xlink="http://www.w3.org/1999/xlink" width="800" zoomAndPan="magnify" viewBox="0 0 600 599.999999" height="800" preserveAspectRatio="xMidYMid meet" version="1.0"><path fill="#9ba2ff" d="M 599.835938 299.835938 C 600.03125 296.855469 600.070312 293.871094 599.949219 290.882812 C 599.828125 287.894531 599.546875 284.921875 599.109375 281.964844 C 598.671875 279.007812 598.082031 276.082031 597.332031 273.1875 C 596.585938 270.292969 595.6875 267.445312 594.636719 264.648438 C 593.589844 261.847656 592.394531 259.113281 591.054688 256.441406 C 589.714844 253.769531 588.234375 251.175781 586.621094 248.660156 C 585.003906 246.144531 583.261719 243.722656 581.390625 241.390625 C 579.515625 239.0625 577.527344 236.835938 575.417969 234.71875 L 366.300781 24.625 C 364.164062 22.484375 361.914062 20.464844 359.558594 18.566406 C 357.203125 16.667969 354.753906 14.902344 352.207031 13.269531 C 349.660156 11.632812 347.03125 10.140625 344.324219 8.792969 C 341.617188 7.441406 338.84375 6.242188 336.007812 5.191406 C 333.171875 4.140625 330.285156 3.246094 327.351562 2.507812 C 324.417969 1.765625 321.453125 1.1875 318.457031 0.769531 C 315.460938 0.347656 312.449219 0.09375 309.425781 -0.00390625 C 306.402344 -0.0976562 303.382812 -0.0273438 300.367188 0.203125 L 300.367188 299.835938 Z M 599.835938 299.835938 " fill-opacity="1" fill-rule="nonzero"/><path fill="#d7daff" d="M 599.835938 300.164062 C 600.03125 303.144531 600.066406 306.128906 599.945312 309.117188 C 599.820312 312.105469 599.542969 315.074219 599.105469 318.03125 C 598.667969 320.988281 598.074219 323.914062 597.328125 326.808594 C 596.578125 329.703125 595.679688 332.550781 594.628906 335.347656 C 593.582031 338.148438 592.386719 340.882812 591.046875 343.554688 C 589.707031 346.226562 588.230469 348.820312 586.617188 351.335938 C 585 353.851562 583.257812 356.277344 581.386719 358.605469 C 579.515625 360.9375 577.523438 363.164062 575.417969 365.28125 L 366.300781 575.375 C 364.160156 577.515625 361.914062 579.535156 359.558594 581.433594 C 357.203125 583.328125 354.75 585.09375 352.203125 586.726562 C 349.65625 588.359375 347.03125 589.851562 344.320312 591.199219 C 341.613281 592.550781 338.84375 593.75 336.003906 594.800781 C 333.167969 595.851562 330.285156 596.746094 327.351562 597.488281 C 324.417969 598.226562 321.453125 598.804688 318.457031 599.226562 C 315.460938 599.644531 312.449219 599.902344 309.425781 600 C 306.402344 600.09375 303.382812 600.027344 300.367188 599.796875 L 300.367188 300.164062 Z M 599.835938 300.164062 " fill-opacity="1" fill-rule="nonzero"/><path fill="#afb5ff" d="M 0 299.835938 C -0.195312 296.855469 -0.230469 293.871094 -0.109375 290.882812 C 0.0117188 287.894531 0.289062 284.921875 0.726562 281.964844 C 1.164062 279.007812 1.757812 276.082031 2.503906 273.1875 C 3.25 270.292969 4.148438 267.445312 5.199219 264.648438 C 6.25 261.847656 7.445312 259.113281 8.785156 256.441406 C 10.125 253.769531 11.601562 251.175781 13.214844 248.660156 C 14.832031 246.144531 16.574219 243.722656 18.449219 241.390625 C 20.320312 239.0625 22.3125 236.835938 24.421875 234.71875 L 234.105469 24.625 C 236.246094 22.484375 238.492188 20.464844 240.847656 18.566406 C 243.203125 16.667969 245.65625 14.902344 248.199219 13.269531 C 250.746094 11.632812 253.375 10.140625 256.082031 8.792969 C 258.789062 7.441406 261.5625 6.242188 264.398438 5.191406 C 267.234375 4.140625 270.121094 3.246094 273.054688 2.507812 C 275.988281 1.765625 278.953125 1.1875 281.949219 0.769531 C 284.945312 0.347656 287.957031 0.09375 290.980469 -0.00390625 C 294.003906 -0.0976562 297.023438 -0.0273438 300.039062 0.203125 L 300.039062 299.835938 Z M 0 299.835938 " fill-opacity="1" fill-rule="nonzero"/><path fill="#c3c7ff" d="M 0 300.164062 C -0.195312 303.144531 -0.230469 306.128906 -0.105469 309.117188 C 0.015625 312.105469 0.296875 315.074219 0.734375 318.03125 C 1.171875 320.988281 1.761719 323.914062 2.511719 326.808594 C 3.257812 329.703125 4.15625 332.550781 5.207031 335.347656 C 6.257812 338.148438 7.449219 340.882812 8.789062 343.554688 C 10.128906 346.226562 11.605469 348.820312 13.222656 351.335938 C 14.835938 353.851562 16.578125 356.277344 18.453125 358.605469 C 20.324219 360.9375 22.3125 363.164062 24.421875 365.28125 L 234.105469 575.375 C 236.246094 577.515625 238.492188 579.535156 240.847656 581.433594 C 243.207031 583.328125 245.65625 585.09375 248.203125 586.726562 C 250.75 588.359375 253.378906 589.851562 256.085938 591.199219 C 258.792969 592.550781 261.566406 593.75 264.402344 594.800781 C 267.238281 595.851562 270.125 596.746094 273.058594 597.488281 C 275.992188 598.226562 278.957031 598.804688 281.949219 599.226562 C 284.945312 599.644531 287.957031 599.902344 290.980469 600 C 294.003906 600.09375 297.023438 600.027344 300.039062 599.796875 L 300.039062 300.164062 Z M 0 300.164062 " fill-opacity="1" fill-rule="nonzero"/></svg>