<?xml version="1.0" encoding="UTF-8"?>
<svg xmlns="http://www.w3.org/2000/svg" version="1.1" viewBox="0 0 300.9 112.6">
  <defs>
    <style>
      .cls-1 {
        fill: #fff;
      }

      .cls-2 {
        fill: #255aa7;
      }
    </style>
  </defs>
  <!-- Generator: Adobe Illustrator 28.7.1, SVG Export Plug-In . SVG Version: 1.2.0 Build 142)  -->
  <g>
    <g id="Layer_1">
      <g id="Ebene_2">
        <g id="Ebene_1-2">
          <rect class="cls-2" width="112" height="112" rx="20.4" ry="20.4"/>
          <rect class="cls-1" x="15.3" y="15.3" width="81.3" height="81.3" rx="14.8" ry="14.8" transform="translate(-23.2 56) rotate(-45)"/>
          <path class="cls-2" d="M132.5,4.3h16.9v3h-13.7v9h12.7v3h-12.7v12.3h-3.2V4.3Z"/>
          <path class="cls-2" d="M161.3,13.1c5.5,0,9.6,3.9,9.6,9.5s-4.1,9.5-9.6,9.5-9.6-3.9-9.6-9.5,4.1-9.4,9.6-9.4ZM161.3,29.2c3.9,0,6.4-2.9,6.4-6.7s-2.5-6.7-6.4-6.7-6.4,2.9-6.4,6.7,2.5,6.7,6.4,6.7Z"/>
          <path class="cls-2" d="M183.8,13.1c5.6,0,9.6,3.9,9.6,9.5s-4.1,9.5-9.6,9.5-9.6-3.9-9.6-9.5,4.1-9.4,9.6-9.4ZM183.8,29.2c3.9,0,6.4-2.9,6.4-6.7s-2.5-6.7-6.4-6.7-6.4,2.9-6.4,6.7,2.5,6.7,6.4,6.7Z"/>
          <path class="cls-2" d="M212.7,28.4h0c-1.5,2.4-4.1,3.8-6.9,3.6-5,0-9-4.1-9-9.5-.2-5,3.6-9.2,8.7-9.5.3,0,.5,0,.8,0,2.5,0,4.9,1.1,6.5,3.1h0V2.5h3v29.1h-3v-3.2ZM206.3,15.9c-3.9,0-6.4,2.9-6.4,6.7s2.5,6.7,6.4,6.7,6.4-2.9,6.4-6.7-2.5-6.7-6.4-6.7Z"/>
          <path class="cls-2" d="M132.5,44.6h8.1c5,0,9.5,1.8,9.5,7.5s-5.1,7.5-8.9,7.5h-5.5v12.2h-3.2v-27.3ZM135.7,56.6h5.5c3.2,0,5.5-1.5,5.5-4.5s-2.2-4.5-5.5-4.5h-5.5v9Z"/>
          <path class="cls-2" d="M153.4,56.2c1.9-1.8,4.5-2.8,7.2-2.8,5.3,0,7.5,2.5,7.5,7.6v7.7c0,1,.1,2.1.3,3.1h-2.9c-.2-.9-.2-1.8-.2-2.7h0c-1.3,2-3.5,3.2-5.9,3.2-3.7,0-6.7-1.8-6.7-5.3,0-6,6.9-6.3,11.4-6.3h1.2v-.5c0-2.6-1.7-4-4.5-4-2,0-3.9.7-5.4,2l-1.9-2ZM162.1,63.2c-3.8,0-6.3,1-6.3,3.5s1.7,3.1,4,3.1c3.5,0,5.2-2.5,5.3-5.4v-1.1h-3Z"/>
          <path class="cls-2" d="M186.1,58.3c-1.1-1.4-2.8-2.2-4.5-2.2-4,0-6.1,3-6.1,6.7s2.4,6.7,6.1,6.7c1.8,0,3.5-.8,4.6-2.2l2.2,2.1c-1.7,1.9-4.2,3-6.8,2.9-5.6,0-9.3-3.9-9.3-9.5s3.8-9.5,9.3-9.5c2.6,0,5.1,1,6.9,2.8l-2.4,2.1Z"/>
          <path class="cls-2" d="M191.6,42.8h3v19l8.2-7.9h4.3l-8.7,8.2,9.6,9.8h-4.4l-8.9-9.5v9.5h-3v-29.1Z"/>
          <path class="cls-2" d="M210.2,56.2c1.9-1.8,4.5-2.8,7.2-2.8,5.3,0,7.6,2.5,7.6,7.6v7.7c0,1,0,2.1.3,3.1h-2.9c-.2-.9-.2-1.8-.2-2.7h0c-1.3,2-3.5,3.2-5.9,3.2-3.6,0-6.7-1.8-6.7-5.3,0-6,6.9-6.3,11.4-6.3h1.2v-.5c0-2.6-1.7-4-4.5-4-2,0-3.9.7-5.4,2l-1.9-2ZM218.9,63.2c-3.8,0-6.3,1-6.3,3.5s1.7,3.1,4,3.1c3.5,0,5.2-2.5,5.3-5.4v-1.1h-3.1Z"/>
          <path class="cls-2" d="M248.1,71.1c0,6.5-3.5,10-9.8,10-3.3.2-6.5-1.1-8.9-3.4l2.2-2.5c1.7,2,4.1,3.1,6.7,3.1,5.4,0,6.8-3.5,6.8-7.3v-2.3h0c-1.4,2.1-3.8,3.4-6.4,3.3-5.7,0-9.6-3.9-9.6-9.2s3.9-9.5,9.6-9.5c2.6,0,5.1,1.3,6.4,3.5h0v-3.1h3v17.2ZM238.6,69.3c3.4,0,6.3-2.6,6.4-6.1,0-.2,0-.3,0-.5.2-3.4-2.4-6.4-5.8-6.6-.2,0-.4,0-.6,0-3.8,0-6.4,2.9-6.4,6.7,0,3.5,2.7,6.4,6.2,6.5,0,0,0,0,.1,0Z"/>
          <path class="cls-2" d="M255,44.6c1.2,0,2.2,1,2.2,2.2h0c0,1.2-.8,2.3-2,2.3-1.2,0-2.3-.8-2.3-2,0,0,0-.2,0-.3,0-1.2,1-2.2,2.2-2.2ZM253.5,53.8h3v18h-3v-18Z"/>
          <path class="cls-2" d="M262,58.1c0-1.7-.1-3.1-.1-4.3h2.8c0,1,0,2,0,3h0c1.2-2.2,3.5-3.5,6-3.4,4.7,0,6.9,3,6.9,7.3v11.1h-3v-10.9c0-3-1.3-4.9-4.1-4.9s-5.6,2.8-5.6,6.9v8.8h-3v-13.7Z"/>
          <path class="cls-2" d="M300.9,71.1c0,6.5-3.5,10-9.8,10-3.3.2-6.5-1.1-8.9-3.4l2.1-2.5c1.7,2,4.1,3.1,6.7,3.1,5.4,0,6.8-3.5,6.8-7.3v-2.3h0c-1.4,2.1-3.8,3.4-6.4,3.3-5.7,0-9.6-3.9-9.6-9.2s3.9-9.5,9.6-9.5c2.6,0,5,1.3,6.4,3.5h0v-3.1h3v17.2ZM291.5,69.3c3.4.1,6.3-2.6,6.4-6,0-.2,0-.3,0-.5,0-3.9-2.6-6.6-6.4-6.6s-6.4,2.9-6.4,6.7c0,3.5,2.7,6.4,6.2,6.5,0,0,0,0,.1,0Z"/>
          <path class="cls-2" d="M132.5,84.9h16.9v3h-13.7v9h12.7v3h-12.7v12.2h-3.2v-27.2Z"/>
          <path class="cls-2" d="M161.3,93.7c5.5,0,9.6,3.8,9.6,9.5s-4.1,9.5-9.6,9.5-9.6-3.8-9.6-9.5,4.1-9.5,9.6-9.5ZM161.3,109.8c3.9,0,6.4-2.9,6.4-6.7s-2.5-6.7-6.4-6.7-6.4,2.9-6.4,6.7,2.5,6.7,6.4,6.7Z"/>
          <path class="cls-2" d="M175.2,98.4c0-1.7-.2-3.1-.2-4.3h2.9c0,1,0,2,0,3h0c1.2-2.2,3.5-3.5,6-3.4.4,0,.8,0,1.2.2l-.2,3c-.5-.2-1.1-.2-1.6-.2-3.6,0-5.3,2.6-5.3,6.7v8.8h-3v-13.8Z"/>
          <path class="cls-2" d="M204.1,107.9c0,1.7.1,3.1.1,4.3h-2.8c0-1,0-2,0-3h0c-1.2,2.2-3.5,3.5-6,3.4-4.7,0-6.9-3-6.9-7.3v-11.1h3v10.9c0,3,1.3,4.9,4.1,4.9s5.6-2.8,5.6-6.9v-8.8h3v13.7Z"/>
          <path class="cls-2" d="M209.5,98.4c0-1.7-.2-3.1-.2-4.3h2.9c0,1,0,2,0,3h0c1.2-2.2,3.5-3.5,6-3.4,3.9,0,5.1,2.2,5.7,3.4,1.1-2.1,3.3-3.5,5.7-3.4,5.2,0,6.9,2.9,6.9,7.5v10.9h-3v-10.8c0-2.5-.9-4.9-4.4-4.9s-4.7,2.1-4.7,5.3v10.4h-3v-10.2c0-4-1-5.5-3.5-5.5-3.9,0-5.6,2.8-5.6,6.9v8.8h-3v-13.8Z"/>
        </g>
      </g>
    </g>
  </g>
</svg>